HIERARCHY
ROOT root
{
	OFFSET	0	13.1	24.9
	CHANNELS 6  Xposition Yposition Zposition Xrotation Yrotation Zrotation
	JOINT spine_1
	{
		OFFSET	0	9.99999	0
		CHANNELS 3  Xrotation Yrotation Zrotation
		JOINT spine_2
		{
			OFFSET	0	112	-10
			CHANNELS 3  Xrotation Yrotation Zrotation
			JOINT spine_3
			{
				OFFSET	0	206.5	19.3
				CHANNELS 3  Xrotation Yrotation Zrotation
				JOINT spine_4
				{
					OFFSET	0	110.4	14.6
					CHANNELS 3  Xrotation Yrotation Zrotation
					JOINT neck_1
					{
						OFFSET	0	71.8	-50.3
						CHANNELS 3  Xrotation Yrotation Zrotation
						JOINT neck_2
						{
							OFFSET	0	86.2	-25.8
							CHANNELS 3  Xrotation Yrotation Zrotation
							JOINT head_ee
							{
								OFFSET	0	179.8	-8.7
								CHANNELS 3  Xrotation Yrotation Zrotation
								End Site
								{
									OFFSET	1	0	0
								}
							}
						}
					}
					JOINT left_clavicle
					{
						OFFSET	-43.2	22.4	-70.8
						CHANNELS 3  Xrotation Yrotation Zrotation
						JOINT left_shoulder
						{
							OFFSET	-93.9	-5.79999	48.7
							CHANNELS 3  Xrotation Yrotation Zrotation
							JOINT left_elbow
							{
								OFFSET	-291.4	-30.8	15.2
								CHANNELS 3  Xrotation Yrotation Zrotation
								JOINT left_lowarm_twist
								{
									OFFSET	-110.7	-3.89999	13.6
									CHANNELS 3  Xrotation Yrotation Zrotation
									JOINT left_hand
									{
										OFFSET	-110.7	-3.89999	13.6
										CHANNELS 3  Xrotation Yrotation Zrotation
										JOINT left_ee
										{
											OFFSET	-80.8	-5.10001	12.1
											CHANNELS 3  Xrotation Yrotation Zrotation
											End Site
											{
												OFFSET	1	0	0
											}
										}
									}
								}
							}
						}
					}
					JOINT right_clavicle
					{
						OFFSET	43.2	22.4	-70.8
						CHANNELS 3  Xrotation Yrotation Zrotation
						JOINT right_shoulder
						{
							OFFSET	93.9	-5.79999	48.7
							CHANNELS 3  Xrotation Yrotation Zrotation
							JOINT right_elbow
							{
								OFFSET	291.4	-30.8	15.2
								CHANNELS 3  Xrotation Yrotation Zrotation
								JOINT right_lowarm_twist
								{
									OFFSET	110.7	-3.89999	13.6
									CHANNELS 3  Xrotation Yrotation Zrotation
									JOINT right_hand
									{
										OFFSET	110.7	-3.89999	13.6
										CHANNELS 3  Xrotation Yrotation Zrotation
										JOINT right_ee
										{
											OFFSET	80.8	-5.10001	12.1
											CHANNELS 3  Xrotation Yrotation Zrotation
											End Site
											{
												OFFSET	1	0	0
											}
										}
									}
								}
							}
						}
					}
				}
			}
		}
	}
	JOINT left_hip
	{
		OFFSET	-82.8	-127.5	0.300001
		CHANNELS 3  Xrotation Yrotation Zrotation
		JOINT left_knee
		{
			OFFSET	-28.2	-396.7	2.2
			CHANNELS 3  Xrotation Yrotation Zrotation
			JOINT left_ankle
			{
				OFFSET	-11.7	-411.3	35.4
				CHANNELS 3  Xrotation Yrotation Zrotation
				JOINT left_toes
				{
					OFFSET	0	-60	-88.6
					CHANNELS 3  Xrotation Yrotation Zrotation
					JOINT left_foot_ee
					{
						OFFSET	-22.5	-16.5	-42.2
						CHANNELS 3  Xrotation Yrotation Zrotation
						End Site
						{
							OFFSET	1	0	0
						}
					}
				}
			}
		}
	}
	JOINT right_hip
	{
		OFFSET	82.8	-127.5	0.300001
		CHANNELS 3  Xrotation Yrotation Zrotation
		JOINT right_knee
		{
			OFFSET	28.2	-396.7	2.2
			CHANNELS 3  Xrotation Yrotation Zrotation
			JOINT right_ankle
			{
				OFFSET	11.7	-411.3	35.4
				CHANNELS 3  Xrotation Yrotation Zrotation
				JOINT right_toes
				{
					OFFSET	0	-60	-88.6
					CHANNELS 3  Xrotation Yrotation Zrotation
					JOINT right_foot_ee
					{
						OFFSET	22.5	-16.5	-42.2
						CHANNELS 3  Xrotation Yrotation Zrotation
						End Site
						{
							OFFSET	1	0	0
						}
					}
				}
			}
		}
	}
}
MOTION
Frames: 5
Frame Time: 0.02
3066.95 607.4 -728.801 -43.1993 40.0416 34.4907 10.2817 0.20023 0.100268 10.2817 0.193444 0.112806 10.2821 0.189701 0.118994 10.2821 0.206113 0.0875408 -6.21104 4.26185 0.894001 -6.20583 7.22977 1.71264 -0.0 0.0 -0.0 0.571313 21.6312 3.32521 -54.9295 -60.0717 53.966 0.371396 -10.4248 0.033881 -36.473 -2.58412 3.79601 6.92184 -18.2178 41.4626 -0.0 0.0 -0.0 11.4313 13.1094 -22.9601 90.8865 -65.838 -4.81761 0.188071 5.32271 -0.00874204 85.3835 4.4725 8.88366 -11.0163 -31.3062 56.2283 0.0 0.0 0.0 58.3259 -18.2187 -6.24025 -4.83218 0.168576 0.722216 11.2396 28.6865 -1.70225 -28.0105 0.0 0.0 -0.0 0.0 -0.0 25.5296 14.8592 2.46888 -21.99 -0.26669 -3.34332 39.8646 3.11226 4.89442 32.4371 -0.0 -0.0 0.0 0.0 0.0 
3039.99 603.688 -740.516 -41.8343 39.6344 33.1255 10.271 0.124986 0.339757 10.2711 0.103113 0.347021 10.2716 0.09179 0.350186 10.2714 0.145943 0.331295 -6.26963 4.99007 -0.060814 -6.26211 9.28076 0.895039 -0.0 0.0 -0.0 0.208752 23.0353 2.95586 -57.8323 -61.5018 50.8186 0.373357 -10.4787 0.0342367 -37.6793 -2.70781 3.88905 6.79491 -17.642 40.8083 -0.0 0.0 -0.0 11.3004 12.4095 -22.6802 90.5289 -67.4335 -4.06718 0.191632 5.4229 -0.00907555 85.3716 4.47107 8.88312 -10.9842 -31.0204 56.5229 0.0 0.0 0.0 59.2425 -16.8644 -5.77709 -10.8098 0.291964 1.63081 16.4274 28.361 -2.43903 -27.6995 0.0 0.0 -0.0 0.0 -0.0 24.5078 16.7683 2.79336 -23.9045 -0.228888 -3.63467 40.0799 1.01688 4.89103 32.4933 -0.0 -0.0 0.0 0.0 0.0 
3011.84 600.075 -751.169 -40.2291 39.3283 31.502 10.3393 0.201385 0.471508 10.3394 0.170974 0.483366 10.3406 0.15578 0.488475 10.3403 0.230969 0.457743 -6.36641 4.97049 0.875926 -6.36079 8.56421 1.84002 -0.0 0.0 -0.0 -0.1528 22.3251 2.37572 -50.7981 -59.2297 57.7098 0.277906 -7.83861 0.0190398 -37.6033 -2.69995 3.88327 6.78182 -16.4496 41.5742 -0.0 0.0 -0.0 11.1306 13.4337 -22.2746 90.2279 -68.2649 -1.32244 0.196836 5.56925 -0.00957391 85.3025 4.46278 8.87998 -10.4454 -31.4803 49.9527 0.0 0.0 0.0 60.1738 -14.2099 -5.62595 -18.2805 0.31214 2.77605 25.6625 27.0517 -3.63537 -25.8115 0.0 0.0 -0.0 0.0 -0.0 23.8516 21.4708 2.79922 -28.1408 -0.110776 -4.27392 40.0856 1.12391 4.89247 37.7577 -0.0 -0.0 0.0 0.0 0.0 
2983.71 607.302 -766.695 -37.9691 40.6264 30.6255 9.72458 0.0978836 0.434756 9.72468 0.0700208 0.440104 9.72499 0.0514721 0.442656 9.72474 0.120735 0.428972 -9.0753 6.53472 1.60909 -9.09707 11.1469 3.11445 -0.0 0.0 -0.0 0.379254 22.3263 3.12129 -56.0329 -61.2882 50.1662 0.344101 -9.67372 0.0291179 -37.1518 -2.65348 3.84869 6.9842 -19.9739 40.6402 -0.0 0.0 -0.0 11.1616 12.6237 -22.3639 90.3049 -67.8889 2.01788 0.192331 5.44258 -0.00914176 85.2017 4.45069 8.87539 -9.7089 -30.0169 45.8741 0.0 0.0 0.0 57.9232 -11.9606 -6.07847 -21.8526 0.269028 3.32237 25.7084 21.678 -3.53368 -25.0854 0.0 0.0 -0.0 0.0 -0.0 22.512 23.9101 0.267164 -32.0494 0.0398702 -4.85472 38.5878 -8.188 4.74009 37.6707 -0.0 -0.0 0.0 0.0 0.0 
2948.55 612.916 -776.882 -36.9238 42.4336 30.7502 9.61716 -0.0167186 0.0235729 9.61716 -0.0181847 0.0224612 9.61715 -0.019153 0.0216415 9.61715 -0.0154948 0.0243947 -9.79662 7.41296 3.86547 -9.79647 11.3243 5.59262 -0.0 0.0 -0.0 1.49857 21.7301 4.6513 -53.2472 -63.2248 49.1869 0.213787 -6.04547 0.0112892 -38.2803 -2.77016 3.93444 7.18329 -19.4698 42.7394 -0.0 0.0 -0.0 10.9879 10.9426 -22.0027 89.5075 -66.5089 5.75477 0.192555 5.44886 -0.00916298 85.0856 4.43677 8.87007 -8.65904 -27.6604 40.6724 0.0 0.0 0.0 55.4927 -15.3451 -4.48042 -24.3007 0.21985 3.6948 26.9768 20.1841 -3.66044 -19.8381 0.0 0.0 -0.0 0.0 -0.0 24.685 25.5333 -1.62461 -40.4165 0.493479 -6.05649 36.9872 -8.34491 4.5936 39.0298 -0.0 -0.0 0.0 0.0 0.0 
